<?xml version="1.0" encoding="UTF-8" standalone="no"?>
<svg
   version="1.1"
   id="Layer_1"
   x="0px"
   y="0px"
   width="100%"
   viewBox="0 0 688 688"
   enable-background="new 0 0 688 688"
   xml:space="preserve"
   sodipodi:docname="quantshake.svg"
   inkscape:version="1.4.2 (ebf0e940, 2025-05-08)"
   xmlns:inkscape="http://www.inkscape.org/namespaces/inkscape"
   xmlns:sodipodi="http://sodipodi.sourceforge.net/DTD/sodipodi-0.dtd"
   xmlns="http://www.w3.org/2000/svg"
   xmlns:svg="http://www.w3.org/2000/svg"><defs
   id="defs10" /><sodipodi:namedview
   id="namedview10"
   pagecolor="#ffffff"
   bordercolor="#000000"
   borderopacity="0.25"
   inkscape:showpageshadow="2"
   inkscape:pageopacity="0.0"
   inkscape:pagecheckerboard="0"
   inkscape:deskcolor="#d1d1d1"
   inkscape:zoom="0.85510587"
   inkscape:cx="77.183425"
   inkscape:cy="218.68637"
   inkscape:window-width="1288"
   inkscape:window-height="811"
   inkscape:window-x="-1"
   inkscape:window-y="31"
   inkscape:window-maximized="0"
   inkscape:current-layer="Layer_1" />
<path
   fill="#000000"
   opacity="1.000000"
   stroke="none"
   d=" M245.994751,81.649734   C250.325928,81.644676 254.168076,81.468307 257.988586,81.680855   C262.183807,81.914246 263.714752,79.841293 263.695282,76.004570   C263.678375,72.672020 263.671265,69.339111 263.698883,66.006676   C263.823456,50.961555 274.274017,39.928036 289.357605,39.813461   C320.181671,39.579327 351.010895,39.534752 381.833740,39.842312   C397.553619,39.999165 408.218903,51.469204 408.248779,67.106857   C408.251007,68.273300 408.249664,69.439781 408.259277,70.606171   C408.364502,83.364975 406.834869,81.579201 419.547546,81.625969   C444.375916,81.717323 469.204865,81.701584 494.033417,81.655663   C498.291016,81.647789 502.373230,82.367348 506.092438,84.320877   C511.754211,87.294724 514.543518,92.097755 514.312561,98.592728   C514.092346,104.784515 511.052612,109.262596 505.351532,111.134956   C501.211029,112.494781 500.357605,114.780914 500.001678,118.720688   C499.211578,127.466949 498.064911,136.175430 497.963013,145.749130   C506.441162,145.749130 514.721558,145.479279 522.978333,145.805573   C539.928284,146.475418 552.817017,153.885681 560.954102,169.167892   C566.306030,179.219437 565.415771,189.683151 564.010925,200.337387   C561.338928,220.601578 558.908813,240.897797 556.204407,261.157501   C554.072754,277.126953 552.224121,293.162994 549.273193,308.987335   C545.113342,331.294556 531.155640,345.875580 510.582092,354.473907   C500.885376,358.526489 490.826447,361.494843 480.527161,363.579742   C476.982727,364.297272 475.410126,365.816925 475.074921,369.805420   C473.809479,384.863434 472.546082,399.957397 470.291138,414.888214   C466.841003,437.732727 449.196594,456.103149 426.753876,461.204926   C419.528870,462.847412 419.703522,462.929962 420.998566,469.682404   C421.648956,473.073669 421.262573,476.658936 421.402252,480.154205   C421.561066,484.127014 422.981110,485.841827 427.612366,485.487610   C445.151123,484.146210 460.902618,488.291199 473.513031,501.558289   C482.757477,511.284027 485.919373,523.137817 487.331940,536.027344   C489.467346,555.512817 492.185547,574.934814 494.698975,594.378296   C496.487579,608.214905 498.598907,622.014893 500.105042,635.881409   C501.675018,650.335632 490.005280,663.318848 475.433685,663.331665   C381.618011,663.414185 287.802216,663.417480 193.986557,663.333923   C179.667313,663.321106 168.928024,648.706116 170.981613,633.625000   C174.187088,610.084595 176.839203,586.468994 179.763641,562.889954   C181.378311,549.871277 182.429321,536.740601 184.870773,523.876038   C188.986969,502.187012 208.763870,486.207642 230.819504,485.754181   C235.483566,485.658295 240.154037,485.604340 244.815460,485.740082   C248.199539,485.838654 249.723892,484.432068 249.723557,481.054077   C249.723099,476.556183 249.785980,472.053925 249.998734,467.561920   C250.151077,464.345520 248.912430,462.871307 245.651138,462.118042   C233.019791,459.200531 221.991272,453.300781 213.278244,443.503571   C203.653214,432.680786 199.956635,419.646545 198.742981,405.520203   C197.035645,385.647888 194.905258,365.812225 193.011475,345.955536   C191.211990,327.087463 189.529739,308.208160 187.712006,289.341888   C185.878723,270.314087 183.891479,251.301071 182.066681,232.272461   C180.559097,216.551575 179.197021,200.816757 177.757660,185.089279   C176.212082,168.201447 174.640076,151.316010 173.104233,134.427292   C172.607193,128.961746 172.065201,123.495522 171.780655,118.017296   C171.618698,114.898956 170.697388,112.856842 167.565002,111.474030   C160.611404,108.404312 157.393570,103.269287 157.948059,97.194534   C158.583130,90.236710 163.525986,84.533882 170.628952,82.802261   C173.691803,82.055580 176.801437,81.616096 180.008881,81.626183   C201.837799,81.694885 223.667038,81.654816 245.994751,81.649734  M332.499908,444.647797   C351.498016,444.648224 370.496948,444.752197 389.493866,444.602539   C398.133026,444.534485 406.757477,444.989685 415.421844,443.804199   C433.503662,441.330200 449.028778,425.665283 450.741333,407.544983   C451.788879,396.460724 452.925110,385.384705 454.055817,374.308472   C455.929108,355.957886 457.857819,337.612976 459.711426,319.260437   C461.548523,301.070892 463.282776,282.870880 465.133820,264.682800   C466.950378,246.833847 468.900024,228.998413 470.710907,211.148911   C472.186218,196.606964 473.506256,182.049301 474.961945,167.505325   C476.516968,151.968781 478.311554,136.454315 479.685242,120.902275   C480.431854,112.449921 480.135101,112.367935 471.522797,112.406006   C440.039856,112.545158 408.557068,112.854843 377.074219,112.854080   C342.928406,112.853256 308.782715,112.551155 274.636749,112.441956   C266.977600,112.417465 259.317352,112.760757 251.658142,112.739655   C232.997238,112.688232 214.336151,112.567047 195.676331,112.364235   C192.030197,112.324615 190.971664,114.024483 191.334488,117.309647   C191.790588,121.439377 192.178146,125.576889 192.570938,129.713348   C194.142166,146.260361 195.727249,162.806122 197.262527,179.356491   C198.721115,195.079910 200.094177,210.811279 201.559540,226.534058   C203.086227,242.914886 204.690735,259.288452 206.238220,275.667358   C207.676651,290.892029 209.027512,306.125153 210.520859,321.344360   C212.370758,340.197388 214.325485,359.040161 216.239349,377.886871   C217.330643,388.633118 217.867386,399.472839 219.647720,410.104004   C223.037277,430.344513 240.482590,444.506500 261.505066,444.618958   C284.836060,444.743805 308.168213,444.646973 332.499908,444.647797  M197.450516,578.885193   C197.327866,580.546204 197.275986,582.215881 197.071686,583.866821   C194.887741,601.515503 192.649185,619.157471 190.501297,636.810547   C190.012665,640.826355 192.015106,643.171997 196.003006,643.638123   C197.980988,643.869385 199.996414,643.831055 201.994827,643.829468   C290.992126,643.760193 379.989441,643.681396 468.986755,643.602722   C470.153320,643.601685 471.324921,643.653870 472.485596,643.566895   C478.184296,643.139648 480.354370,640.974915 479.804047,635.302124   C478.841248,625.377930 477.531433,615.486450 476.308258,605.588562   C473.454498,582.496643 470.290405,559.438965 467.777527,536.310303   C465.731323,517.477173 454.719208,505.918518 437.825470,505.950073   C369.168884,506.078278 300.511139,506.443390 231.856613,506.120911   C216.658188,506.049530 204.684723,518.034302 203.158463,532.974609   C201.621841,548.016235 199.490295,562.997131 197.450516,578.885193  M517.434937,166.299500   C512.772705,166.304199 508.110535,166.312424 503.448334,166.312836   C494.729645,166.313614 494.728882,166.311691 494.292175,175.167877   C494.267548,175.666550 494.305695,176.169922 494.257538,176.665573   C492.796692,191.698944 491.378448,206.736694 489.848785,221.763092   C488.032684,239.602798 486.121033,257.432800 484.248230,275.266724   C482.704498,289.966919 481.109131,304.661865 479.630524,319.368622   C478.841919,327.212646 478.252106,335.076660 477.509735,343.658112   C489.356506,340.865051 500.279083,338.326447 509.938629,332.003723   C521.648071,324.339172 528.531677,313.529358 530.562012,299.828339   C535.866272,264.035370 540.342407,228.130249 544.633545,192.202835   C546.164429,179.386169 539.133118,169.191727 526.861511,166.718231   C524.127014,166.167068 521.230835,166.418350 517.434937,166.299500  M347.500092,464.369812   C324.671875,464.374146 301.843689,464.376404 279.015472,464.383911   C270.381561,464.386749 270.396912,464.392670 270.175171,472.746277   C270.117737,474.909515 270.001709,477.076233 269.790680,479.229401   C269.173187,485.528534 269.229858,485.642456 275.715057,485.643372   C312.706757,485.648651 349.698425,485.639648 386.690125,485.633942   C390.189301,485.633423 393.692627,485.513763 397.186523,485.646454   C400.762390,485.782318 401.942230,484.094452 401.583282,480.741150   C401.211365,477.267029 400.764679,473.773041 400.790924,470.291077   C400.824585,465.824707 399.079437,464.200531 394.488342,464.272797   C379.162231,464.514130 363.830017,464.368225 347.500092,464.369812  M356.499939,81.647644   C362.832489,81.647697 369.166595,81.739258 375.497223,81.629036   C389.296661,81.388779 387.587982,83.987236 387.714966,69.510796   C387.781982,61.873013 386.264435,60.389355 378.756378,60.383698   C360.758759,60.370140 342.761169,60.386299 324.763550,60.387943   C313.764984,60.388950 302.766327,60.355408 291.767914,60.395271   C285.470703,60.418091 284.274963,61.678871 284.201233,68.089638   C284.172485,70.588997 284.398041,73.110115 284.144409,75.584068   C283.640686,80.496750 285.821716,81.780037 290.509308,81.735527   C312.171173,81.529877 333.836090,81.646133 356.499939,81.647644  z"
   id="path1" />
<path
   fill="#000000"
   opacity="1.000000"
   stroke="none"
   d=" M231.223877,313.696289   C253.410355,312.138428 273.626740,316.705688 292.475922,327.814789   C300.820557,332.732819 309.992310,335.686066 319.768433,336.819122   C331.391327,338.166260 341.959198,335.330200 351.690674,329.361969   C359.773529,324.404846 367.365845,318.653870 375.381317,313.579712   C397.178131,299.781250 421.142151,297.538666 446.071228,300.714478   C448.400696,301.011230 449.184479,302.159607 448.952118,304.413940   C446.787811,325.410675 444.655762,346.410797 442.523895,367.410858   C441.147308,380.970886 440.112732,394.575714 438.325256,408.081085   C436.606903,421.064301 425.206177,431.234375 412.183502,431.277863   C360.695618,431.449707 309.206177,431.485138 257.718750,431.250305   C242.947952,431.182922 232.209595,419.036530 230.758316,403.026489   C228.371857,376.699799 225.555252,350.412140 222.920609,324.107941   C222.887390,323.776459 222.862335,323.444122 222.832565,323.112274   C222.063202,314.535706 222.063171,314.535706 231.223877,313.696289  M344.948975,372.419769   C343.789276,372.398315 342.609314,372.226746 341.473297,372.380402   C335.190613,373.230011 330.770020,376.565918 328.487335,382.522675   C326.177551,388.550232 327.478333,394.187683 331.712463,398.657745   C335.922974,403.102844 341.291046,404.967712 347.568909,402.710480   C353.783905,400.475861 357.844879,395.042938 357.922211,388.396515   C358.020111,379.983337 354.683899,375.644104 344.948975,372.419769  M409.902466,345.872284   C409.465332,344.978333 409.114594,344.028412 408.577545,343.199158   C403.838501,335.882263 394.083374,333.922699 387.149292,338.865082   C380.037628,343.934082 378.382172,354.390442 383.575653,361.437164   C388.690796,368.377563 397.672333,369.556335 404.717010,364.042419   C410.469849,359.539612 411.796692,353.502594 409.902466,345.872284  M264.377441,367.736053   C264.101440,369.804230 264.902252,371.691223 265.544922,373.547211   C267.481262,379.139282 274.179535,383.360474 279.576172,382.551422   C286.121826,381.570129 291.343201,376.171783 291.803314,369.909882   C292.320648,362.868622 288.581024,357.232941 282.201172,355.439270   C274.002441,353.134277 267.710388,357.226562 264.377441,367.736053  z"
   id="path2"
   style="fill:#6c46ae;fill-opacity:1" />
<path
   fill="#000000"
   opacity="1.000000"
   stroke="none"
   d=" M248.137451,164.983170   C263.177246,156.040756 278.929230,161.751572 283.447937,177.497940   C285.814972,185.746384 282.976868,192.745331 277.179535,198.315247   C270.501160,204.731705 262.212341,206.120483 253.576630,202.908218   C245.639145,199.955688 240.851486,193.972168 239.807663,185.480865   C238.809906,177.364487 241.078537,170.345718 248.137451,164.983170  z"
   id="path3"
   style="fill:#6c46ae;fill-opacity:1" />
<path
   fill="#000000"
   opacity="1.000000"
   stroke="none"
   d=" M305.962372,218.051849   C313.272095,210.109390 321.942108,208.819809 331.236084,212.320404   C339.026886,215.254852 343.392181,221.500427 344.166016,229.760406   C345.088226,239.604019 339.587952,247.868057 330.507629,251.146088   C321.067719,254.553925 310.693787,251.674118 304.960388,244.054108   C299.052612,236.202271 299.329987,226.778641 305.962372,218.051849  z"
   id="path4"
   style="fill:#6c46ae;fill-opacity:1" />
<path
   fill="#000000"
   opacity="1.000000"
   stroke="none"
   d=" M281.647797,274.897736   C280.134064,286.924225 272.654694,294.701172 262.344543,295.336914   C251.038223,296.034149 242.626007,290.282196 239.753738,279.890259   C236.428802,267.860504 243.148499,257.271332 256.010132,254.272842   C267.230133,251.657059 279.092102,259.297699 281.219666,270.539429   C281.466034,271.841064 281.530396,273.177094 281.647797,274.897736  z"
   id="path5"
   style="fill:#6c46ae;fill-opacity:1" />
<path
   fill="#000000"
   opacity="1.000000"
   stroke="none"
   d=" M361.466675,272.954407   C359.173187,261.291718 362.639740,252.968338 371.419830,248.306274   C379.785675,243.864166 390.213104,245.259048 396.824615,251.957626   C402.833893,258.046021 404.954437,265.293884 401.859833,273.481628   C398.925537,281.245331 393.294281,286.273529 384.943237,287.237488   C376.007080,288.268951 368.504822,285.356171 363.543823,277.397736   C362.757446,276.136230 362.252167,274.699524 361.466675,272.954407  z"
   id="path6"
   style="fill:#6c46ae;fill-opacity:1" />
<path
   fill="#000000"
   opacity="1.000000"
   stroke="none"
   d=" M434.884491,226.948456   C426.924347,233.010162 417.466888,233.553070 410.067535,228.606720   C404.093262,224.613007 400.513336,215.727173 402.146423,208.945541   C404.136139,200.682938 410.823120,194.996475 419.913818,193.836609   C427.317474,192.891983 435.867676,197.569504 439.282379,204.432419   C443.140228,212.185974 441.753784,219.664825 434.884491,226.948456  z"
   id="path7"
   style="fill:#6c46ae;fill-opacity:1" />
<path
   fill="#000000"
   opacity="1.000000"
   stroke="none"
   d=" M356.415039,181.618027   C349.928284,173.798111 349.012970,166.582489 353.291107,158.877197   C357.111206,151.996826 364.938690,148.511337 373.782776,149.752472   C381.160614,150.787842 386.984894,156.353348 388.789276,164.491882   C390.370209,171.622360 388.124573,177.708633 382.576202,182.308624   C376.468353,187.372498 369.539978,188.644318 362.138885,185.290619   C360.201965,184.412918 358.497314,183.022507 356.415039,181.618027  z"
   id="path8"
   style="fill:#6c46ae;fill-opacity:1" />
<path
   fill="#000000"
   opacity="1.000000"
   stroke="none"
   d=" M318.607483,294.188904   C329.696960,290.260406 340.002655,297.891693 341.636353,305.982147   C343.189484,313.673584 338.758026,322.364716 331.135223,325.221283   C322.867462,328.319519 313.503143,324.972198 309.689056,317.555206   C305.898193,310.183380 308.128326,300.781403 314.776001,296.284149   C315.869202,295.544617 317.086243,294.988190 318.607483,294.188904  z"
   id="path9"
   style="fill:#6c46ae;fill-opacity:1" />
<path
   fill="#000000"
   opacity="1.000000"
   stroke="none"
   d=" M329.894226,618.375427   C309.582184,615.328308 295.763611,602.830444 291.343964,583.879883   C285.366913,558.251587 305.517365,532.278259 331.746857,530.536499   C360.146729,528.650757 381.785034,551.374084 380.346771,578.240662   C379.324493,597.336975 361.208435,616.907166 342.210968,618.414856   C338.238037,618.730164 334.289856,619.474792 329.894226,618.375427  M323.598694,596.975159   C327.621033,599.332825 331.983307,599.894714 336.582489,599.760681   C346.475525,599.472229 355.526733,592.979553 358.990570,583.453735   C362.699493,573.253906 359.716095,562.105896 351.357422,554.931152   C343.748260,548.399780 332.482086,547.196045 323.781860,551.736328   C307.860260,560.045105 304.332123,585.311584 323.598694,596.975159  z"
   id="path10" />
</svg>
